<?xml version="1.0" encoding="utf-8"?>
<!-- Generator: Adobe Illustrator 22.0.0, SVG Export Plug-In . SVG Version: 6.00 Build 0)  -->
<svg version="1.1" id="Calque_1" xmlns="http://www.w3.org/2000/svg" xmlns:xlink="http://www.w3.org/1999/xlink" x="0px" y="0px"
	 viewBox="0 0 595.3 595.3" style="enable-background:new 0 0 595.3 595.3;" xml:space="preserve">
<style type="text/css">
	.st0{fill:#AC9B6A;}
	.st1{fill:#FFFFFF;}
</style>
<rect x="0" class="st0" width="595.3" height="595.3"/>
<polygon class="st1" points="128.6,464.8 123.9,456.8 119.2,464.8 110.1,466.8 116.4,473.7 115.4,483 123.9,479.2 132.4,483 
	131.5,473.7 137.7,466.8 "/>
<polygon class="st1" points="165.9,464.8 161.2,456.8 156.6,464.8 147.5,466.8 153.7,473.7 152.7,483 161.2,479.2 169.8,483 
	168.8,473.7 175,466.8 "/>
<polygon class="st1" points="202.6,464.8 197.9,456.8 193.2,464.8 184.1,466.8 190.4,473.7 189.4,483 197.9,479.2 206.4,483 
	205.5,473.7 211.7,466.8 "/>
<polygon class="st1" points="239.9,464.8 235.3,456.8 230.6,464.8 221.5,466.8 227.7,473.7 226.7,483 235.3,479.2 243.8,483 
	242.8,473.7 249,466.8 "/>
<polygon class="st1" points="331.8,464.9 327.2,456.9 322.6,464.9 313.5,466.8 319.7,473.7 318.7,482.9 327.2,479.1 335.6,482.9 
	334.7,473.7 340.9,466.8 "/>
<polygon class="st1" points="368.8,464.9 364.2,456.9 359.5,464.9 350.5,466.8 356.7,473.7 355.7,482.9 364.2,479.1 372.6,482.9 
	371.7,473.7 377.8,466.8 "/>
<polygon class="st1" points="405.1,464.9 400.5,456.9 395.9,464.9 386.8,466.8 393,473.7 392,482.9 400.5,479.1 408.9,482.9 
	408,473.7 414.1,466.8 "/>
<polygon class="st1" points="442.1,464.9 437.5,456.9 432.8,464.9 423.8,466.8 430,473.7 429,482.9 437.5,479.1 445.9,482.9 
	445,473.7 451.1,466.8 "/>
<polygon class="st1" points="479.1,464.9 474.4,456.9 469.8,464.9 460.8,466.8 466.9,473.7 466,482.9 474.4,479.1 482.9,482.9 
	481.9,473.7 488.1,466.8 "/>
<g>
	<g>
		<path class="st1" d="M472.5,203.8c0.9-0.1,1.4-0.4,1.7-0.6C474.2,203.3,473.6,203.6,472.5,203.8"/>
	</g>
	<path class="st1" d="M283.8,347.4c221.5,30.4,204.7-132.5,202.9-123.6c0,0,9.8,126.8-194.2,98.2c-179.9-25.2-181.3-71.7-181.3-71.7
		S100.1,322.1,283.8,347.4"/>
	<path class="st1" d="M317,269.3c166.1,92.7,166.5-50.2,166.5-50.2c-1.7,8.7-10.8,125.4-164.7,24c-153.9-101.4-206.4,0-206.4,0
		S150.9,176.6,317,269.3"/>
	<path class="st1" d="M341.6,236.4c123.1,95.7,139.2-21.1,139.2-21.1c-2.5,6.9-22.4,101.4-134.5,0.1
		C234.1,114.1,179,189.8,179,189.8S218.4,140.7,341.6,236.4"/>
	<path class="st1" d="M361,207.2c96,91.7,117.4,4.7,117.4,4.7c-2.7,5.6-25.4,73.3-111.6-22.1c-86.2-95.4-139.4-36.1-139.4-36.1
		S265,115.5,361,207.2"/>
	<path class="st1" d="M382.5,183c70.9,82.8,94.2,25.6,94.2,25.6c-2.7,4.4-25.5,45.8-88-39.3c-62.6-85.1-110.9-41-110.9-41
		S311.7,100.1,382.5,183"/>
	<path class="st1" d="M404.7,167.4c47.9,74,71,38.3,71,38.3c-2.6,2.7-23.7,26.9-64.6-47.3c-41-74.2-84.3-50.8-84.3-50.8
		S356.8,93.3,404.7,167.4"/>
	<path class="st1" d="M427.5,155.4c18.5,50.2,39,49.8,44.9,48.4c-5.9,0.9-24.1-2.5-39.1-53.7c-17.2-58.6-51.3-49-51.3-49
		S405.5,95.8,427.5,155.4"/>
	<path class="st1" d="M143.4,434.9c2.7-2.6,4.3-6.4,4.6-11.1c0.1-0.5,0.2-0.9,0.2-1.5v-1.6c0-1.2-0.1-2.5-0.2-3.8
		c-0.1-1.3-0.4-2.6-0.8-3.8c-0.4-1.2-0.8-2.4-1.4-3.4c-0.6-1.1-1.3-2-2.1-2.8c-1.4-1.3-3-2.2-4.7-2.7c-1.6-0.5-3.2-0.7-4.7-0.7h-7.8
		c-1,0-2,0-2.9-0.2c-0.7-0.1-1.3-0.3-1.6-0.7c-0.5-0.6-0.7-1.2-0.8-1.9c-0.1-0.8-0.1-1.6-0.1-2.5c0-0.5,0-1,0.1-1.5
		c0-0.4,0.2-0.9,0.4-1.3c0.2-0.5,0.5-1,1-1.6c0.4-0.5,0.8-0.7,1.2-0.7h20c0.9,0,1.4-0.6,1.4-1.5v-8.5c0-0.9-0.6-1.5-1.4-1.5h-22.9
		c-1.2,0-2.5,0.4-3.8,1.1c-1.2,0.7-2.2,1.4-3,2.2c-2.8,2.6-4.4,6.2-4.7,10.8c-0.1,0.5-0.2,1-0.2,1.5v1.5c0,1.2,0.1,2.5,0.2,3.7
		c0.2,1.2,0.4,2.5,0.8,3.7c0.4,1.2,0.8,2.3,1.4,3.4c0.6,1.1,1.3,2,2.1,2.8c1.4,1.3,3,2.1,4.8,2.5c1.7,0.4,3.3,0.6,4.8,0.6h7.8
		c1.1,0,2,0.1,2.8,0.3c0.7,0.2,1.2,0.5,1.6,0.9c0.5,0.6,0.7,1.3,0.8,2c0.1,0.9,0.1,1.7,0.1,2.5c0,0.5,0,1.1-0.1,1.6
		c0,0.4-0.2,0.9-0.4,1.4c-0.2,0.6-0.6,1.2-1,1.9c-0.5,0.8-1,0.8-1.2,0.8h-22.3c-0.9,0-1.4,0.6-1.4,1.5v8.5c0,0.9,0.6,1.5,1.4,1.5
		h25.2c1.2,0,2.4-0.4,3.6-1.1C141.5,436.4,142.5,435.7,143.4,434.9"/>
	<path class="st1" d="M176.3,411.5C176.3,411.4,176.3,411.4,176.3,411.5l4.8-17.5c0-0.1,0.1-0.2,0.1-0.3c0,0.1,0,0.2,0.1,0.3
		l4.8,17.5c0,0,0,0.1,0,0.1L176.3,411.5z M205.2,437.1l-13.9-50.4c-0.6-2.2-1.8-3.7-3.6-4.3c-1.6-0.5-3.7-0.8-6.4-0.8
		c-2.6,0-4.7,0.3-6.3,0.8c-1.7,0.6-2.9,2-3.5,4.3l-14.1,50.2l0,0.2c0,0.6,0.4,1.2,1.3,1.2h9c0.8,0,1.4-0.5,1.6-1.3l3.7-13.2
		c0.1-0.3,0.1-0.3,0.2-0.3h16.3c0.1,0,0.1,0,0.2,0.2l3.7,13.3c0.2,0.8,0.8,1.2,1.6,1.2h9.1C204.7,438.3,205.2,437.8,205.2,437.1"/>
	<path class="st1" d="M259.4,435c0.7-0.9,1.2-1.9,1.6-3c0.4-1.1,0.6-2.2,0.6-3.3v-45.6c0-0.9-0.6-1.5-1.4-1.5h-8.7
		c-0.9,0-1.4,0.6-1.4,1.5v41.7l-9-36.9c-0.5-1.9-1.5-3.5-2.9-4.6c-1.4-1.1-3.7-1.7-6.8-1.7c-2,0-3.8,0.2-5.2,0.7
		c-1.4,0.5-2.6,1.2-3.5,2.2c-0.9,1-1.5,2.3-1.8,3.8c-0.3,1.5-0.5,3.3-0.5,5.3v43.1c0,0.9,0.6,1.5,1.4,1.5h8.6c0.9,0,1.4-0.6,1.4-1.5
		l0-41.5l9,36.8c0.2,0.8,0.5,1.6,1,2.3c0.5,0.7,1,1.4,1.6,1.9c0.6,0.6,1.2,1.1,1.9,1.4c0.7,0.4,1.4,0.6,2.1,0.6h6.4
		c1.1,0,2.2-0.3,3.1-0.9C258,436.7,258.8,436,259.4,435"/>
	<path class="st1" d="M310.5,420.3c0,0.8-0.2,1.5-0.5,2.3c-0.3,0.8-0.8,1.5-1.3,2.1c-0.5,0.6-1.2,1.1-1.9,1.5
		c-0.6,0.4-1.3,0.6-1.9,0.6h-12.3v0l-0.1-33.7h0h11.8c0.7,0,1.4,0.2,2.1,0.6c0.7,0.4,1.4,0.9,2,1.5c0.6,0.7,1.1,1.4,1.5,2.2
		s0.6,1.6,0.6,2.4V420.3z M318.3,388c-1.3-1.9-3-3.4-5-4.6c-2-1.2-4.4-1.8-7.2-1.8h-23.6c-0.9,0-1.4,0.6-1.4,1.5v53.6
		c0,0.9,0.6,1.5,1.4,1.5h23.7c2.7,0,5.2-0.6,7.1-1.7c2-1.1,3.7-2.6,5-4.3c1.3-1.7,2.2-3.7,2.9-5.9c0.6-2.1,0.9-4.3,0.9-6.3v-18.5
		c0-2.4-0.3-4.8-0.9-7.2C320.5,392,319.5,389.8,318.3,388"/>
	<path class="st1" d="M353.2,411.5C353.2,411.4,353.2,411.4,353.2,411.5L358,394c0-0.1,0.1-0.2,0.1-0.3c0,0.1,0,0.2,0.1,0.3
		l4.8,17.5c0,0,0,0,0,0.1L353.2,411.5z M364.5,382.4c-1.6-0.5-3.7-0.8-6.4-0.8c-2.6,0-4.7,0.3-6.3,0.8c-1.7,0.6-2.9,2-3.5,4.3
		l-14.1,50.2l0,0.2c0,0.6,0.4,1.2,1.3,1.2h9c0.8,0,1.4-0.5,1.6-1.3l3.7-13.2c0.1-0.3,0.1-0.3,0.2-0.3h16.3c0.1,0,0.1,0,0.2,0.2
		l3.7,13.3c0.2,0.8,0.8,1.2,1.6,1.2h9.1c0.7,0,1.2-0.5,1.2-1.2l-13.9-50.4C367.4,384.4,366.2,383,364.5,382.4"/>
	<path class="st1" d="M431.8,381.6h-9.3c-0.6,0-1.4,0.3-1.9,1.5l-9.5,23.5c-0.1,0.2-0.3,0.3-0.3,0.4c0,0-0.4,0.3-0.6-0.3l-9.8-23.7
		c-0.5-1.2-1.4-1.4-1.9-1.4H389c-0.6,0-1,0.3-1.1,0.5c-0.4,0.6,0,1.4,0.1,1.6l13.3,31.9c0.6,1.1,1.3,1.9,2.1,2.4
		c0.5,0.3,1,0.6,1.4,0.8v16.7c0,2.3,1.1,2.7,1.8,2.7h8.4c0.6,0,1.7-0.3,1.7-2.7v-16.6c0.4-0.2,0.9-0.5,1.4-0.8
		c0.7-0.5,1.3-1.3,2-2.3l13-32.1c0.2-0.4,0.2-0.8,0-1.2C433,381.9,432.5,381.6,431.8,381.6"/>
	<path class="st1" d="M459.3,411.5C459.3,411.4,459.3,411.4,459.3,411.5l4.8-17.5c0-0.1,0.1-0.2,0.1-0.3c0,0.1,0,0.2,0.1,0.3
		l4.8,17.5c0,0,0,0,0,0.1L459.3,411.5z M477.8,438.3h9.1c0.7,0,1.2-0.5,1.2-1.2l-13.9-50.4c-0.6-2.2-1.8-3.7-3.6-4.3
		c-1.6-0.5-3.7-0.8-6.4-0.8c-2.7,0-4.7,0.3-6.3,0.8c-1.7,0.6-2.9,2-3.5,4.3l-14.1,50.2l0,0.2c0,0.6,0.4,1.2,1.3,1.2h9
		c0.8,0,1.4-0.5,1.6-1.3l3.7-13.2c0.1-0.3,0.1-0.3,0.2-0.3h16.3c0.1,0,0.1,0,0.2,0.2l3.7,13.3C476.4,437.8,477,438.3,477.8,438.3"/>
</g>
<g>
	<path class="st1" d="M291.6,486.4l-3-3.6c-1.3,1.2-4.4,3.9-9.7,3.9c-6.4,0-10.4-3.8-10.4-9.6c0-4.9,3.5-7.4,7.1-9.8
		c-1.6-1.9-3.6-4.2-3.6-7.2c0-3.9,3-6.9,7.3-6.9c4.1,0,7.2,3,7.2,6.9c0,2.6-1.6,4.4-3.6,5.9l-2.4,1.7l8.4,10.1
		c1.3-2,1.8-3.8,1.8-7.5h3.3c0,4.2-0.9,7.5-3,10.1l5,6H291.6z M277.6,469.5c-2.8,1.9-5.6,3.8-5.6,7.5c0,3.9,2.9,6.6,6.9,6.6
		c2.4,0,4.9-0.6,7.8-3.2L277.6,469.5z M279.4,456.3c-2.3,0-3.8,1.6-3.8,3.8c0,1.5,0.8,2.8,3,5.4l1.8-1.2c1.5-1.1,3-2.2,3-4.1
		C283.3,458,281.6,456.3,279.4,456.3z"/>
</g>
</svg>
